<?xml version="1.0" encoding="UTF-8" standalone="no"?><!DOCTYPE svg PUBLIC "-//W3C//DTD SVG 1.1//EN" "http://www.w3.org/Graphics/SVG/1.1/DTD/svg11.dtd"><svg width="100%" height="100%" viewBox="0 0 165 314" version="1.1" xmlns="http://www.w3.org/2000/svg" xmlns:xlink="http://www.w3.org/1999/xlink" xml:space="preserve" xmlns:serif="http://www.serif.com/" style="fill-rule:evenodd;clip-rule:evenodd;stroke-linejoin:round;stroke-miterlimit:2;"><rect id="banner-install" x="0.493" y="0" width="164" height="314" style="fill:#003799;"/><g><g><g><path d="M61.765,198.892l-8.346,-30.824l-9.362,0l-8.346,30.824l6.712,-0l1.899,-7.42l8.434,-0l1.943,7.42l7.066,-0Zm-10.024,-12.759l-6.359,-0l3.003,-11.666l0.353,-0l3.003,11.666Z" style="fill:#fff;fill-rule:nonzero;"/><path d="M79.703,198.892l5.736,-0l-0,-30.824l-7.283,0l-3.8,10.38l-0.354,-0l-3.8,-10.38l-7.813,0l-0,30.824l5.736,-0l-0,-13.733l-0.353,-8.616l0.397,-0l5.745,15.856l5.744,-15.856l0.398,-0l-0.353,8.616l-0,13.733Z" style="fill:#fff;fill-rule:nonzero;"/><path d="M95.863,198.892l-0,-11.219l5.259,0c6.05,0 9.449,-3.838 9.449,-9.802c-0,-5.964 -3.399,-9.803 -9.449,-9.803l-11.923,0l-0,30.824l6.664,-0Zm-0,-25.485l3.58,-0c3.094,-0 4.154,1.105 4.154,3.801l0,1.326c0,2.696 -1.06,3.8 -4.154,3.8l-3.58,0l-0,-8.927Z" style="fill:#fff;fill-rule:nonzero;"/><path d="M122.187,199.422c4.461,-0 7.243,-2.03 8.524,-6.267l-4.814,-2.121c-0.53,2.342 -1.502,3.491 -3.71,3.491c-2.253,-0 -3.357,-1.326 -3.357,-3.977l-0,-6.495c-0,-2.651 1.104,-3.977 3.357,-3.977c2.164,0 3.136,1.105 3.445,3.314l4.991,-2.209c-1.149,-3.796 -3.843,-6.002 -8.436,-6.002c-6.446,0 -9.8,3.971 -9.8,12.144c-0,8.172 3.354,12.099 9.8,12.099Z" style="fill:#fff;fill-rule:nonzero;"/></g><g><path d="M36.411,219.063l2.028,0l-0,-8.572l1.911,0l0,-1.672l-1.911,-0l-0,-2.663l1.911,-0l0,-1.673l-1.635,0c-1.595,0 -2.304,0.748 -2.304,2.383l0,1.953l-1.418,-0l-0,1.672l1.418,0l0,8.572Z" style="fill:#fff;fill-rule:nonzero;"/><path d="M45.022,219.3c2.602,-0 4.255,-1.633 4.255,-5.359c0,-3.726 -1.653,-5.359 -4.255,-5.359c-2.602,0 -4.255,1.633 -4.255,5.359c-0,3.726 1.653,5.359 4.255,5.359Zm-0,-1.693c-1.361,0 -2.11,-0.808 -2.11,-2.464l-0,-2.405c-0,-1.655 0.749,-2.464 2.11,-2.464c1.36,0 2.11,0.809 2.11,2.464l-0,2.405c-0,1.656 -0.75,2.464 -2.11,2.464Z" style="fill:#fff;fill-rule:nonzero;"/><path d="M52.824,219.063l0,-6.444c0,-1.202 0.788,-1.734 2.227,-1.734l0.867,0l-0,-2.066l-0.512,-0c-1.222,-0 -2.05,0.728 -2.345,2.027l-0.237,-0l0,-2.027l-2.027,-0l-0,10.244l2.027,0Z" style="fill:#fff;fill-rule:nonzero;"/><path d="M65.122,219.063l1.852,-8.472l0.434,-3.172l0.236,0l0.434,3.172l1.773,8.472l2.502,0l3.015,-13.752l-2.049,-0l-1.616,8.334l-0.433,3.192l-0.257,-0l-0.433,-3.152l-1.754,-8.374l-2.541,-0l-1.734,8.374l-0.434,3.152l-0.256,-0l-0.433,-3.192l-1.616,-8.334l-2.128,-0l2.916,13.752l2.522,0Z" style="fill:#fff;fill-rule:nonzero;"/><path d="M77.615,206.865c0.808,0 1.221,-0.354 1.221,-1.043l-0,-0.354c-0,-0.689 -0.413,-1.044 -1.221,-1.044c-0.807,0 -1.22,0.355 -1.22,1.044l-0,0.354c-0,0.689 0.413,1.043 1.22,1.043Zm-1.003,12.198l2.027,0l-0,-10.244l-2.027,-0l-0,10.244Z" style="fill:#fff;fill-rule:nonzero;"/><path d="M82.836,219.063l0,-6.917c0,-1.142 0.848,-1.832 1.913,-1.832c1.164,-0 1.716,0.788 1.716,2.227l-0,6.522l2.027,0l-0,-6.798c-0,-2.404 -1.063,-3.683 -2.895,-3.683c-1.282,0 -2.11,0.63 -2.524,1.929l-0.237,-0l0,-1.692l-2.027,-0l0,10.244l2.027,0Z" style="fill:#fff;fill-rule:nonzero;"/><path d="M96.318,219.063l2.027,0l-0,-14.58l-2.027,0l-0,6.008l-0.237,0c-0.335,-1.2 -1.282,-1.909 -2.484,-1.909c-2.424,0 -3.605,1.949 -3.605,5.358c0,3.411 1.181,5.36 3.605,5.36c1.202,-0 2.149,-0.709 2.484,-1.909l0.237,-0l-0,1.672Zm-1.992,-1.495c-1.38,0 -2.189,-0.907 -2.189,-2.484l0,-2.286c0,-1.577 0.809,-2.484 2.189,-2.484c1.144,-0 1.992,0.65 1.992,1.695l-0,3.864c-0,1.045 -0.848,1.695 -1.992,1.695Z" style="fill:#fff;fill-rule:nonzero;"/><path d="M104.12,219.3c2.602,-0 4.255,-1.633 4.255,-5.359c0,-3.726 -1.653,-5.359 -4.255,-5.359c-2.602,0 -4.255,1.633 -4.255,5.359c-0,3.726 1.653,5.359 4.255,5.359Zm-0,-1.693c-1.361,0 -2.11,-0.808 -2.11,-2.464l0,-2.405c0,-1.655 0.749,-2.464 2.11,-2.464c1.36,0 2.11,0.809 2.11,2.464l-0,2.405c-0,1.656 -0.75,2.464 -2.11,2.464Z" style="fill:#fff;fill-rule:nonzero;"/><path d="M111.254,219.063l2.384,0l1.202,-4.984l0.571,-3.31l0.237,0l0.552,3.31l1.201,4.984l2.384,0l2.463,-10.244l-1.872,-0l-1.044,4.669l-0.63,3.743l-0.217,0l-0.749,-3.743l-1.123,-4.669l-2.128,-0l-1.103,4.669l-0.749,3.743l-0.236,0l-0.63,-3.743l-1.005,-4.669l-1.971,-0l2.463,10.244Z" style="fill:#fff;fill-rule:nonzero;"/><path d="M126.348,219.3c2.326,-0 3.645,-1.22 3.645,-3.289c-0,-1.617 -0.847,-2.523 -2.955,-2.898l-0.907,-0.177c-0.927,-0.158 -1.321,-0.513 -1.321,-1.321c-0,-0.907 0.513,-1.4 1.538,-1.4c0.888,0 1.696,0.395 2.247,1.144l1.221,-1.203c-0.827,-1.023 -1.91,-1.574 -3.488,-1.574c-2.148,0 -3.466,1.004 -3.466,3.112c-0,1.794 0.944,2.641 3.013,3.016l0.887,0.157c0.967,0.178 1.282,0.631 1.282,1.361c0,0.946 -0.611,1.439 -1.676,1.439c-1.085,-0 -1.893,-0.493 -2.562,-1.459l-1.299,1.202c0.906,1.221 2.146,1.89 3.841,1.89Z" style="fill:#fff;fill-rule:nonzero;"/></g></g><g><path d="M144.993,88.784c-0,5.582 -26.416,51.335 -31.25,54.126c-4.835,2.791 -57.666,2.791 -62.5,0c-4.835,-2.791 -31.25,-48.544 -31.25,-54.126c-0,-5.583 26.415,-51.336 31.25,-54.127c4.834,-2.791 57.665,-2.791 62.5,0c4.834,2.791 31.25,48.544 31.25,54.127Z" style="fill:#fff;"/><path d="M121.166,75.235c-0.001,0.035 -0.002,0.07 -0.003,0.106l-0.001,0.006c-4.412,7.905 -10.262,19.504 -17.304,25.379c-6.12,1.763 -12.219,2.708 -18.112,1.266c-6.99,-1.71 -13.365,-1.79 -21.017,2.767c-8.418,5.013 -19.894,-0.825 -19.956,-1.05c-0.281,-1.012 -0.596,-2.007 -0.939,-2.983c10.308,-1.128 26.789,-3.316 37.18,-6.266c9.163,-2.6 27.008,-9.95 40.152,-19.239l-0,0.014Zm-38.876,-34.598c-2.266,19.88 -11.211,38.084 -24.793,51.946c4.287,-2.975 9.327,-5.002 14.857,-5.73c5.294,-0.697 10.462,-0.129 15.202,1.469c2.845,-7.937 3.895,-16.652 2.718,-25.587c-1.069,-8.126 -3.873,-15.599 -7.984,-22.099l-0,0.001Zm9.056,39.044c1.692,-0.637 3.483,-1.093 5.354,-1.339c2.89,-0.38 5.727,-0.23 8.414,0.375c0.058,-2.049 -0.042,-4.127 -0.318,-6.224c-1.61,-12.228 -8.738,-22.375 -18.547,-28.271c2.575,5.599 4.365,11.673 5.211,18.104c0.778,5.91 0.708,11.736 -0.114,17.355l-0,0l-0,0l-0,0Z" style="fill:#003799;"/></g></g></svg>