<?xml version="1.0" encoding="UTF-8" standalone="no"?><!DOCTYPE svg PUBLIC "-//W3C//DTD SVG 1.1//EN" "http://www.w3.org/Graphics/SVG/1.1/DTD/svg11.dtd"><svg width="100%" height="100%" viewBox="0 0 151 58" version="1.1" xmlns="http://www.w3.org/2000/svg" xmlns:xlink="http://www.w3.org/1999/xlink" xml:space="preserve" xmlns:serif="http://www.serif.com/" style="fill-rule:evenodd;clip-rule:evenodd;stroke-linejoin:round;stroke-miterlimit:2;"><rect id="header-uninstall" x="0.9" y="0.567" width="150" height="57" style="fill:none;"/><g><g><g><path d="M78.26,37.356l-4.887,-18.05l-5.482,0l-4.887,18.05l3.93,0l1.112,-4.345l4.939,-0l1.138,4.345l4.137,0Zm-5.87,-7.471l-3.723,-0l1.758,-6.832l0.207,0l1.758,6.832Z" style="fill:#262626;fill-rule:nonzero;"/><path d="M88.764,37.356l3.359,0l-0,-18.05l-4.265,0l-2.225,6.078l-0.207,0l-2.225,-6.078l-4.576,0l0,18.05l3.359,0l0,-8.042l-0.206,-5.045l0.232,0l3.364,9.285l3.364,-9.285l0.233,0l-0.207,5.045l-0,8.042Z" style="fill:#262626;fill-rule:nonzero;"/><path d="M98.227,37.356l-0,-6.569l3.08,-0c3.542,-0 5.532,-2.248 5.532,-5.74c0,-3.493 -1.99,-5.741 -5.532,-5.741l-6.982,0l-0,18.05l3.902,0Zm-0,-14.923l2.096,-0c1.812,-0 2.433,0.647 2.433,2.225l0,0.777c0,1.578 -0.621,2.225 -2.433,2.225l-2.096,0l-0,-5.227Z" style="fill:#262626;fill-rule:nonzero;"/><path d="M113.642,37.666c2.612,0 4.241,-1.188 4.991,-3.669l-2.819,-1.242c-0.31,1.371 -0.879,2.044 -2.172,2.044c-1.319,-0 -1.966,-0.776 -1.966,-2.329l-0,-3.803c-0,-1.553 0.647,-2.329 1.966,-2.329c1.267,0 1.836,0.647 2.017,1.941l2.923,-1.294c-0.673,-2.223 -2.251,-3.515 -4.94,-3.515c-3.775,0 -5.739,2.326 -5.739,7.111c0,4.786 1.964,7.085 5.739,7.085Z" style="fill:#262626;fill-rule:nonzero;"/></g><g><path d="M63.414,49.168l1.187,-0l-0,-5.02l1.119,0l0,-0.979l-1.119,-0l-0,-1.559l1.119,-0l0,-0.98l-0.958,0c-0.933,0 -1.348,0.438 -1.348,1.395l-0,1.144l-0.831,-0l-0,0.979l0.831,0l-0,5.02Z" style="fill:#003799;fill-rule:nonzero;"/><path d="M68.456,49.306c1.523,0 2.491,-0.956 2.491,-3.138c0,-2.181 -0.968,-3.138 -2.491,-3.138c-1.524,0 -2.492,0.957 -2.492,3.138c-0,2.182 0.968,3.138 2.492,3.138Zm-0,-0.991c-0.797,0 -1.236,-0.473 -1.236,-1.442l0,-1.409c0,-0.969 0.439,-1.443 1.236,-1.443c0.796,0 1.235,0.474 1.235,1.443l0,1.409c0,0.969 -0.439,1.442 -1.235,1.442Z" style="fill:#003799;fill-rule:nonzero;"/><path d="M73.024,49.168l0,-3.773c0,-0.704 0.462,-1.016 1.304,-1.016l0.508,0l0,-1.21l-0.3,-0c-0.715,-0 -1.2,0.426 -1.373,1.187l-0.139,0l0,-1.187l-1.187,-0l0,5.999l1.187,-0Z" style="fill:#003799;fill-rule:nonzero;"/><path d="M80.226,49.168l1.085,-4.961l0.253,-1.858l0.139,0l0.254,1.858l1.038,4.961l1.465,-0l1.765,-8.053l-1.199,-0l-0.946,4.88l-0.254,1.869l-0.15,0l-0.254,-1.846l-1.027,-4.903l-1.488,-0l-1.016,4.903l-0.253,1.846l-0.15,0l-0.254,-1.869l-0.946,-4.88l-1.246,-0l1.707,8.053l1.477,-0Z" style="fill:#262626;fill-rule:nonzero;"/><path d="M87.542,42.025c0.472,0 0.714,-0.207 0.714,-0.611l0,-0.207c0,-0.404 -0.242,-0.611 -0.714,-0.611c-0.473,-0 -0.715,0.207 -0.715,0.611l-0,0.207c-0,0.404 0.242,0.611 0.715,0.611Zm-0.588,7.143l1.187,-0l0,-5.999l-1.187,-0l-0,5.999Z" style="fill:#262626;fill-rule:nonzero;"/><path d="M90.599,49.168l-0,-4.05c-0,-0.67 0.496,-1.074 1.12,-1.074c0.681,0 1.005,0.462 1.005,1.304l-0,3.82l1.187,-0l-0,-3.981c-0,-1.408 -0.623,-2.157 -1.695,-2.157c-0.751,0 -1.236,0.369 -1.479,1.13l-0.138,-0l-0,-0.991l-1.187,-0l-0,5.999l1.187,-0Z" style="fill:#262626;fill-rule:nonzero;"/><path d="M98.493,49.168l1.187,-0l0,-8.538l-1.187,0l0,3.518l-0.138,0c-0.197,-0.703 -0.751,-1.118 -1.455,-1.118c-1.419,0 -2.111,1.141 -2.111,3.138c0,1.997 0.692,3.138 2.111,3.138c0.704,0 1.258,-0.414 1.455,-1.118l0.138,0l0,0.98Zm-1.166,-0.876c-0.808,0 -1.282,-0.531 -1.282,-1.454l0,-1.339c0,-0.924 0.474,-1.455 1.282,-1.455c0.67,0 1.166,0.381 1.166,0.993l0,2.263c0,0.611 -0.496,0.992 -1.166,0.992Z" style="fill:#262626;fill-rule:nonzero;"/><path d="M103.062,49.306c1.524,0 2.492,-0.956 2.492,-3.138c-0,-2.181 -0.968,-3.138 -2.492,-3.138c-1.523,0 -2.492,0.957 -2.492,3.138c0,2.182 0.969,3.138 2.492,3.138Zm0,-0.991c-0.797,0 -1.235,-0.473 -1.235,-1.442l-0,-1.409c-0,-0.969 0.438,-1.443 1.235,-1.443c0.797,0 1.236,0.474 1.236,1.443l-0,1.409c-0,0.969 -0.439,1.442 -1.236,1.442Z" style="fill:#262626;fill-rule:nonzero;"/><path d="M107.24,49.168l1.396,-0l0.704,-2.919l0.334,-1.938l0.139,0l0.323,1.938l0.703,2.919l1.396,-0l1.443,-5.999l-1.096,-0l-0.612,2.734l-0.369,2.192l-0.127,0l-0.438,-2.192l-0.658,-2.734l-1.246,-0l-0.646,2.734l-0.439,2.192l-0.138,0l-0.369,-2.192l-0.589,-2.734l-1.153,-0l1.442,5.999Z" style="fill:#262626;fill-rule:nonzero;"/><path d="M116.078,49.306c1.362,0 2.135,-0.714 2.135,-1.926c-0,-0.946 -0.496,-1.477 -1.73,-1.696l-0.532,-0.104c-0.542,-0.093 -0.773,-0.3 -0.773,-0.774c-0,-0.531 0.3,-0.819 0.9,-0.819c0.52,-0 0.994,0.231 1.316,0.669l0.715,-0.704c-0.484,-0.599 -1.118,-0.922 -2.042,-0.922c-1.258,0 -2.03,0.588 -2.03,1.822c-0,1.051 0.553,1.547 1.764,1.767l0.52,0.092c0.566,0.104 0.751,0.369 0.751,0.796c-0,0.555 -0.358,0.843 -0.982,0.843c-0.635,0 -1.108,-0.288 -1.5,-0.854l-0.761,0.704c0.53,0.715 1.256,1.106 2.249,1.106Z" style="fill:#262626;fill-rule:nonzero;"/></g></g><g><path d="M55.9,29.067c0,2.01 -9.509,18.481 -11.25,19.486c-1.74,1.005 -20.759,1.005 -22.5,-0c-1.74,-1.005 -11.25,-17.476 -11.25,-19.486c0,-2.009 9.51,-18.481 11.25,-19.485c1.741,-1.005 20.76,-1.005 22.5,-0c1.741,1.004 11.25,17.476 11.25,19.485Z" style="fill:#262626;"/><path d="M47.323,24.19c-0.001,0.012 -0.001,0.025 -0.001,0.038l-0.001,0.002c-1.588,2.846 -3.694,7.021 -6.229,9.136c-2.203,0.635 -4.399,0.975 -6.521,0.456c-2.516,-0.616 -4.811,-0.644 -7.565,0.996c-3.031,1.805 -7.162,-0.297 -7.185,-0.378c-0.101,-0.364 -0.214,-0.722 -0.338,-1.074c3.711,-0.406 9.644,-1.193 13.385,-2.255c3.299,-0.936 9.723,-3.582 14.455,-6.926l-0,0.005Zm-13.996,-12.456c-0.815,7.157 -4.035,13.711 -8.925,18.701c1.543,-1.071 3.358,-1.801 5.349,-2.063c1.905,-0.251 3.766,-0.046 5.472,0.529c1.024,-2.857 1.402,-5.995 0.979,-9.211c-0.385,-2.926 -1.395,-5.616 -2.875,-7.956l0,0Zm3.261,14.056c0.609,-0.229 1.254,-0.393 1.927,-0.482c1.04,-0.137 2.062,-0.083 3.029,0.135c0.021,-0.737 -0.015,-1.486 -0.115,-2.24c-0.579,-4.403 -3.145,-8.055 -6.676,-10.178c0.927,2.016 1.571,4.202 1.876,6.518c0.28,2.127 0.254,4.224 -0.041,6.247l-0.001,0l0,0l0.001,0Z" style="fill:#fff;"/></g></g></svg>