<?xml version="1.0" encoding="UTF-8" standalone="no"?><!DOCTYPE svg PUBLIC "-//W3C//DTD SVG 1.1//EN" "http://www.w3.org/Graphics/SVG/1.1/DTD/svg11.dtd"><svg width="100%" height="100%" viewBox="0 0 129 129" version="1.1" xmlns="http://www.w3.org/2000/svg" xmlns:xlink="http://www.w3.org/1999/xlink" xml:space="preserve" xmlns:serif="http://www.serif.com/" style="fill-rule:evenodd;clip-rule:evenodd;stroke-linejoin:round;stroke-miterlimit:2;"><rect id="icon" x="0" y="0.02" width="128.269" height="128.269" style="fill:none;"/><g><path d="M126.635,64.155c-0,5.582 -26.416,51.335 -31.25,54.126c-4.835,2.791 -57.666,2.791 -62.5,0c-4.835,-2.791 -31.25,-48.544 -31.25,-54.126c-0,-5.583 26.415,-51.336 31.25,-54.127c4.834,-2.791 57.665,-2.791 62.5,0c4.834,2.791 31.25,48.544 31.25,54.127Z" style="fill:#003799;"/><path d="M102.808,50.606c-0.001,0.035 -0.002,0.07 -0.004,0.106l0,0.006c-4.412,7.905 -10.262,19.504 -17.305,25.379c-6.119,1.763 -12.218,2.708 -18.111,1.266c-6.99,-1.711 -13.365,-1.79 -21.017,2.767c-8.418,5.013 -19.894,-0.825 -19.957,-1.05c-0.28,-1.012 -0.596,-2.007 -0.938,-2.983c10.308,-1.128 26.788,-3.316 37.18,-6.266c9.163,-2.6 27.008,-9.95 40.152,-19.239l-0,0.014Zm-38.876,-34.598c-2.266,19.88 -11.211,38.084 -24.793,51.946c4.287,-2.975 9.327,-5.002 14.857,-5.73c5.294,-0.697 10.462,-0.129 15.202,1.469c2.845,-7.937 3.895,-16.652 2.718,-25.587c-1.07,-8.126 -3.873,-15.599 -7.984,-22.099l-0,0.001Zm9.056,39.044c1.692,-0.637 3.483,-1.093 5.354,-1.339c2.89,-0.38 5.727,-0.23 8.414,0.375c0.058,-2.049 -0.043,-4.128 -0.319,-6.224c-1.609,-12.228 -8.737,-22.375 -18.546,-28.271c2.575,5.599 4.365,11.673 5.211,18.104c0.778,5.91 0.708,11.736 -0.114,17.355l-0,0l-0,0l-0,0Z" style="fill:#fff;"/></g></svg>