<?xml version="1.0" encoding="UTF-8" standalone="no"?><!DOCTYPE svg PUBLIC "-//W3C//DTD SVG 1.1//EN" "http://www.w3.org/Graphics/SVG/1.1/DTD/svg11.dtd"><svg width="100%" height="100%" viewBox="0 0 129 129" version="1.1" xmlns="http://www.w3.org/2000/svg" xmlns:xlink="http://www.w3.org/1999/xlink" xml:space="preserve" xmlns:serif="http://www.serif.com/" style="fill-rule:evenodd;clip-rule:evenodd;stroke-linejoin:round;stroke-miterlimit:2;"><rect id="icon-uninstall" x="0.688" y="0.02" width="128.269" height="128.269" style="fill:none;"/><g><path d="M127.322,64.155c0,5.582 -26.416,51.335 -31.25,54.126c-4.834,2.791 -57.666,2.791 -62.5,0c-4.834,-2.791 -31.25,-48.544 -31.25,-54.126c0,-5.583 26.416,-51.336 31.25,-54.127c4.834,-2.791 57.666,-2.791 62.5,0c4.834,2.791 31.25,48.544 31.25,54.127Z" style="fill:#262626;"/><path d="M103.495,50.606c-0.001,0.035 -0.002,0.07 -0.003,0.106l-0,0.006c-4.413,7.905 -10.262,19.504 -17.305,25.379c-6.12,1.763 -12.218,2.708 -18.112,1.266c-6.989,-1.711 -13.364,-1.79 -21.016,2.767c-8.418,5.013 -19.895,-0.825 -19.957,-1.05c-0.281,-1.012 -0.596,-2.007 -0.939,-2.983c10.308,-1.128 26.789,-3.316 37.18,-6.266c9.163,-2.6 27.009,-9.95 40.153,-19.239l-0.001,0.014Zm-38.876,-34.598c-2.266,19.88 -11.21,38.084 -24.793,51.946c4.287,-2.975 9.328,-5.002 14.858,-5.73c5.294,-0.697 10.461,-0.129 15.202,1.469c2.845,-7.937 3.894,-16.652 2.718,-25.587c-1.07,-8.126 -3.873,-15.599 -7.985,-22.099l0,0.001Zm9.056,39.044c1.693,-0.637 3.484,-1.093 5.354,-1.339c2.89,-0.38 5.727,-0.23 8.415,0.375c0.058,-2.049 -0.043,-4.128 -0.319,-6.224c-1.61,-12.228 -8.738,-22.375 -18.547,-28.271c2.575,5.599 4.365,11.673 5.212,18.104c0.778,5.91 0.707,11.736 -0.115,17.355l0,0l0,0l0,0Z" style="fill:#fff;"/></g></svg>